<svg xmlns:xlink="http://www.w3.org/1999/xlink" version="1.0" width="48" xmlns="http://www.w3.org/2000/svg" height="48">
<defs id="defs4"/>
<g style="stroke:none;fill-rule:evenodd" id="layer1" transform="translate(0,-80)">
<path style="fill:#3e659e" id="path3005" d="m 7,82.5038 c -2.5274,0.255139 -4.5,2.40313 -4.5,5 v 33 c 0,2.77 2.23,5 5,5 h 33 c 2.77,0 5,-2.23 5,-5 v -33 c 0,-2.77 -2.23,-5 -5,-5 h -33 c -0.173125,0 -0.331506,-0.01701 -0.5,0 z "/>
<path style="fill:#fff" id="path3003" d="m 24,8.3438 c -4.10762,0 -8.19765,1.57265 -11.3125,4.6875 -3.21219,3.21219 -4.78788,7.48376 -4.6875,11.7188 v 11.25 c 0,1.6254 1.3121,2.90625 2.9375,2.90625 h 26.125 c 1.6254,0 2.9375,-1.28085 2.9375,-2.90625 v -11.25 c 0.100381,-4.235 -1.47531,-8.50656 -4.6875,-11.7188 -3.11485,-3.11485 -7.20488,-4.6875 -11.3125,-4.6875 z  m 0,6.25 c 2.5431,0 5.07785,0.984109 7.03125,2.9375 1.93016,1.93016 2.91454,4.42756 2.9375,6.9375 h -19.9375 c 0.02296,-2.50994 1.00735,-5.00734 2.9375,-6.9375 1.9534,-1.9534 4.48815,-2.9375 7.03125,-2.9375 z " transform="translate(0,80)"/>
</g>
</svg>
