<svg xmlns:xlink="http://www.w3.org/1999/xlink" version="1.0" width="48" xmlns="http://www.w3.org/2000/svg" height="48">
<defs id="defs4"/>
<g style="stroke:none;fill-rule:evenodd" id="layer1" transform="translate(0,-80)">
<path style="fill:#0099c4" id="path3007" d="m 7,82.5038 c -2.5274,0.255139 -4.5,2.40313 -4.5,5 v 33 c 0,2.77 2.23,5 5,5 h 33 c 2.77,0 5,-2.23 5,-5 v -33 c 0,-2.77 -2.23,-5 -5,-5 h -33 c -0.173125,0 -0.331506,-0.01701 -0.5,0 z "/>
<path style="fill:#fff" id="path3049" d="m 23.9688,87.0975 c 0.834256,-0.0097 1.62996,0.315154 2.21875,0.90625 0.588787,0.591107 0.91928,1.38454 0.90625,2.21875 v 20.3125 l 7.9062,-7.9062 c 1.21001,-1.2066 3.16839,-1.21001 4.375,0 1.20663,1.21 1.21001,3.19964 0,4.40625 l -13.1875,13.1562 c -1.20681,1.20611 -3.13694,1.20611 -4.34375,0 l -13.1875,-13.1875 c -0.900713,-0.87701 -1.1917,-2.2102 -0.71875,-3.375 0.472949,-1.16481 1.61784,-1.93663 2.875,-1.9375 0.834515,-8e-05 1.63682,0.33936 2.21875,0.9375 l 7.875,7.9062 v -20.3125 c -0.01283,-0.821405 0.302244,-1.59858 0.875,-2.1875 0.572757,-0.588919 1.36605,-0.92735 2.1875,-0.9375 z "/>
</g>
</svg>
