<svg width="48" version="1.0" xmlns="http://www.w3.org/2000/svg" height="48">
<g style="stroke:none;fill-rule:evenodd" id="layer1" transform="translate(0,-80)">
<path style="fill:#b40000" id="path3817" d="m 7.5,82.5 c -2.77,0 -5,2.23 -5,5 v 33 c 0,2.77 2.23,5 5,5 h 33 c 2.77,0 5,-2.23 5,-5 v -33 c 0,-2.77 -2.23,-5 -5,-5 h -33 z "/>
<g style="fill:#fff" id="g6">
<path id="path3815" d="m 14.1875,90 c 1.3274,-0.03472 2.54661,0.745206 3.0625,1.96875 0.515887,1.22355 0.232789,2.63634 -0.71875,3.5625 -4.15036,4.15036 -4.15036,10.7871 0,14.9375 4.15036,4.15037 10.7871,4.15037 14.9375,0 4.15036,-4.15034 4.15035,-10.7871 0,-14.9375 -1.26202,-1.25865 -1.25865,-3.30048 0,-4.5625 1.25865,-1.26202 3.30048,-1.25865 4.5625,0 6.61808,6.61808 6.61808,17.4444 0,24.0625 -6.61809,6.61809 -17.4444,6.61809 -24.0625,0 -6.61809,-6.61808 -6.61809,-17.4444 0,-24.0625 0.587576,-0.598771 1.38009,-0.94844 2.21875,-0.96875 z "/>
<path id="rect3076" d="m 23.9375,90.2812 c 0.79262,-0.01319 1.56331,0.284357 2.125,0.84375 0.561693,0.559389 0.8849,1.33234 0.875,2.125 v 12.5 c 0.01496,1.05767 -0.555208,2.06055 -1.46875,2.59375 -0.913539,0.53319 -2.02396,0.53319 -2.9375,0 -0.91354,-0.53319 -1.48371,-1.5361 -1.46875,-2.59375 v -12.5 c -0.02025,-1.61499 1.26011,-2.9418 2.875,-2.96875 z "/>
</g>
</g>
</svg>
