<svg xmlns:xlink="http://www.w3.org/1999/xlink" version="1.0" width="48" xmlns="http://www.w3.org/2000/svg" height="48">
<defs id="defs4">
<clipPath id="clipPath3108" clipPathUnits="userSpaceOnUse">
<path style="fill:url(#radialGradient3112);stroke:none;stroke-linejoin:round;stroke-linecap:round;stroke-width:16.495;stroke-dashoffset:4.15" id="path3110" d="m -166.2261,25.639 c -2.14474,0.051946 -4.18487,0.937493 -5.6875,2.46875 -16.9247,16.9247 -16.9247,44.6378 0,61.5625 16.9247,16.9247 44.6378,16.9247 61.5625,0 16.9247,-16.9247 16.9247,-44.6378 0,-61.5625 -3.22741,-3.21879 -8.43746,-3.19616 -11.6562,0.03125 -3.21878,3.22741 -3.22741,8.43746 0,11.6563 10.6139,10.6139 10.6139,27.6049 0,38.2188 -10.6139,10.6139 -27.6361,10.6139 -38.25,0 -10.6139,-10.6139 -10.6139,-27.6049 0,-38.2188 2.43341,-2.3685 3.16305,-5.99599 1.84375,-9.125 -1.31929,-3.12902 -4.41788,-5.12004 -7.8125,-5.03125 z  m 24.9688,.7188 c -4.12982,0.068921 -7.42678,3.46367 -7.375,7.59375 v 32 c -0.03825,2.70477 1.38252,5.2302 3.71875,6.59375 2.33623,1.36355 5.22627,1.36355 7.5625,0 2.33624,-1.36355 3.75701,-3.88898 3.71875,-6.59375 v -32 c 0.02542,-2.02712 -0.78231,-3.9757 -2.21875,-5.40625 -1.43644,-1.43055 -3.37925,-2.22124 -5.40625,-2.1875 z "/>
</clipPath>
<clipPath id="clipPath3079" clipPathUnits="userSpaceOnUse">
<g id="g3081" transform="translate(-189.50993,0)">
<path style="fill:url(#radialGradient3085);stroke:none;stroke-linejoin:round;stroke-linecap:round;stroke-width:16.495;stroke-dashoffset:4.15" id="path3083" d="m 28.021,20.2507 c -2.70477,-0.03825 -5.2302,1.38252 -6.59375,3.71875 -1.36354,2.33623 -1.36355,5.22627 0,7.5625 1.36355,2.33623 3.88898,3.757 6.59375,3.71875 h 4.03125 c -9.73211,10.6267 -14.0464,25.8507 -10.0625,40.7188 6.19485,23.1196 30.1929,36.9761 53.3125,30.7812 23.1195,-6.19487 36.9761,-30.193 30.7812,-53.3125 -1.18562,-4.40126 -5.69249,-6.99813 -10.0937,-5.8125 -4.40126,1.18563 -7.02938,5.6925 -5.84375,10.0938 3.88494,14.4988 -4.59493,29.2088 -19.0938,33.0938 -14.4988,3.88495 -29.2401,-4.62618 -33.125,-19.125 -3.11605,-11.6293 1.72709,-23.3864 11.25,-29.5938 v 11.9688 c -0.03825,2.70477 1.38252,5.2302 3.71875,6.59375 2.33623,1.36355 5.22627,1.36355 7.5625,0 2.33623,-1.36355 3.757,-3.88898 3.71875,-6.59375 v -26 c 0.02542,-2.02711 -0.78231,-3.9757 -2.21875,-5.40625 -0.80079,-0.797508 -1.77011,-1.38219 -2.8125,-1.75 -0.95816,-0.426097 -2.00803,-0.670257 -3.125,-0.65625 h -28 z "/>
</g>
</clipPath>
<clipPath id="clipPath3095" clipPathUnits="userSpaceOnUse">
<g id="g3097" transform="translate(-128.13808,0)">
<path style="fill:url(#radialGradient3101);stroke:none;stroke-linejoin:round;stroke-linecap:round;stroke-width:16.495;stroke-dashoffset:4.15" id="path3099" d="m 28.021,20.2507 c -2.70477,-0.03825 -5.2302,1.38252 -6.59375,3.71875 -1.36354,2.33623 -1.36355,5.22627 0,7.5625 1.36355,2.33623 3.88898,3.757 6.59375,3.71875 h 4.03125 c -9.73211,10.6267 -14.0464,25.8507 -10.0625,40.7188 6.19485,23.1196 30.1929,36.9761 53.3125,30.7812 23.1195,-6.19487 36.9761,-30.193 30.7812,-53.3125 -1.18562,-4.40126 -5.69249,-6.99813 -10.0937,-5.8125 -4.40126,1.18563 -7.02938,5.6925 -5.84375,10.0938 3.88494,14.4988 -4.59493,29.2088 -19.0938,33.0938 -14.4988,3.88495 -29.2401,-4.62618 -33.125,-19.125 -3.11605,-11.6293 1.72709,-23.3864 11.25,-29.5938 v 11.9688 c -0.03825,2.70477 1.38252,5.2302 3.71875,6.59375 2.33623,1.36355 5.22627,1.36355 7.5625,0 2.33623,-1.36355 3.757,-3.88898 3.71875,-6.59375 v -26 c 0.02542,-2.02711 -0.78231,-3.9757 -2.21875,-5.40625 -0.80079,-0.797508 -1.77011,-1.38219 -2.8125,-1.75 -0.95816,-0.426097 -2.00803,-0.670257 -3.125,-0.65625 h -28 z "/>
</g>
</clipPath>
<clipPath id="clipPath3114" clipPathUnits="userSpaceOnUse">
<path style="fill:url(#radialGradient3118);stroke:none;stroke-linejoin:round;stroke-linecap:round;stroke-width:16.495;stroke-dashoffset:4.15" id="path3116" d="m -69.0938,25.639 c -2.14475,0.051946 -4.18487,0.937493 -5.6875,2.46875 -16.9247,16.9247 -16.9247,44.6378 0,61.5625 16.9247,16.9247 44.6378,16.9247 61.5625,0 16.9247,-16.9247 16.9247,-44.6378 0,-61.5625 -3.22741,-3.21879 -8.43746,-3.19616 -11.6562,0.03125 -3.21879,3.22741 -3.22741,8.43746 0,11.6563 10.6139,10.6139 10.6139,27.6049 0,38.2188 -10.6139,10.6139 -27.6361,10.6139 -38.25,0 -10.6139,-10.6139 -10.6139,-27.6049 0,-38.2188 2.43341,-2.3685 3.16305,-5.99599 1.84375,-9.125 -1.3193,-3.12902 -4.41789,-5.12004 -7.8125,-5.03125 z  m 24.9688,.7188 c -4.12983,0.068921 -7.42679,3.46367 -7.375,7.59375 v 32 c -0.038252,2.70477 1.38252,5.2302 3.71875,6.59375 2.33623,1.36355 5.22627,1.36355 7.5625,0 2.33623,-1.36355 3.757,-3.88898 3.71875,-6.59375 v -32 c 0.025417,-2.02712 -0.78231,-3.9757 -2.21875,-5.40625 -1.43644,-1.43055 -3.37926,-2.22124 -5.40625,-2.1875 z "/>
</clipPath>
<linearGradient id="linearGradient2990">
<stop offset="0" style="stop-color:#ccc" id="stop2992"/>
<stop offset="1" style="stop-color:#f1f1f1" id="stop2994"/>
</linearGradient>
<radialGradient fx="66.881805" fy="105.27442" cx="64" cy="81.325775" gradientTransform="matrix(0.712348,-0.1260581,0.1345724,0.7604617,-197.66681,20.174132)" spreadMethod="reflect" r="43.474762" id="radialGradient3112" xlink:href="#linearGradient2990" gradientUnits="userSpaceOnUse"/>
<radialGradient fx="66.881805" fy="105.27442" cx="64" cy="81.325775" gradientTransform="matrix(0.712348,-0.1260581,0.1345724,0.7604617,-100.53448,20.174132)" spreadMethod="reflect" r="43.474762" id="radialGradient3118" xlink:href="#linearGradient2990" gradientUnits="userSpaceOnUse"/>
<radialGradient fx="66.881805" fy="105.27442" cx="64" cy="81.325775" gradientTransform="matrix(0.6799405,0.2470045,-0.2636877,0.7258654,34.441172,2.9041542)" spreadMethod="reflect" r="43.474762" id="radialGradient3085" xlink:href="#linearGradient2990" gradientUnits="userSpaceOnUse"/>
<radialGradient fx="66.881805" fy="105.27442" cx="64" cy="81.325775" gradientTransform="matrix(0.6799405,0.2470045,-0.2636877,0.7258654,34.441172,2.9041542)" spreadMethod="reflect" r="43.474762" id="radialGradient3101" xlink:href="#linearGradient2990" gradientUnits="userSpaceOnUse"/>
</defs>
<g style="stroke:none;fill-rule:evenodd" id="layer1" transform="translate(0,-80)">
<path style="fill:#dca100" id="path3095" d="m 7,82.5038 c -2.5274,0.255139 -4.5,2.40313 -4.5,5 v 33 c 0,2.77 2.23,5 5,5 h 33 c 2.77,0 5,-2.23 5,-5 v -33 c 0,-2.77 -2.23,-5 -5,-5 h -33 c -0.173125,0 -0.331506,-0.01701 -0.5,0 z "/>
<path style="fill:#fff" id="path3049" d="m 9.7188,87.5038 c 0.127715,-0.01536 0.244379,-0.0018 0.375,0 h 10.8438 c 0.431534,-0.0054 0.817321,0.08537 1.1875,0.25 0.40272,0.142097 0.784371,0.379392 1.09375,0.6875 0.554959,0.552685 0.85355,1.27934 0.84375,2.0625 v 10.0625 c 0.01478,1.04496 -0.534912,2.00445 -1.4375,2.53125 -0.902588,0.52681 -2.00366,0.52681 -2.90625,0 -0.902588,-0.52679 -1.45228,-1.48629 -1.4375,-2.53125 v -4.625 c -3.67912,2.39817 -5.54762,6.94459 -4.34375,11.4375 1.50093,5.60152 7.17972,8.87592 12.7812,7.375 5.60153,-1.50093 8.87592,-7.17973 7.375,-12.7812 -0.458062,-1.70038 0.580851,-3.44819 2.28125,-3.90625 1.7004,-0.45806 3.41694,0.549608 3.875,2.25 2.39334,8.93208 -2.94291,18.2004 -11.875,20.5938 -8.9321,2.39335 -18.2004,-2.9429 -20.5938,-11.875 -1.53915,-5.74418 0.115059,-11.6444 3.875,-15.75 h -1.5625 c -1.04497,0.01478 -2.00445,-0.534914 -2.53125,-1.4375 -0.526799,-0.902594 -0.526795,-2.00365 0,-2.90625 0.460949,-0.789763 1.26225,-1.33 2.15625,-1.4375 z "/>
</g>
</svg>
