<svg xmlns:xlink="http://www.w3.org/1999/xlink" version="1.0" width="48" xmlns="http://www.w3.org/2000/svg" height="48">
<defs id="defs4"/>
<g style="stroke:none;fill-rule:evenodd" id="layer1" transform="translate(0,-80)">
<path style="fill:#3e659e" id="path3776" d="m 7,82.5038 c -2.5274,0.255139 -4.5,2.40313 -4.5,5 v 33 c 0,2.77 2.23,5 5,5 h 33 c 2.77,0 5,-2.23 5,-5 v -33 c 0,-2.77 -2.23,-5 -5,-5 h -33 c -0.173125,0 -0.331506,-0.01701 -0.5,0 z "/>
<path style="fill:#fff" id="path3774" d="m 24,7.4062 c -9.38402,0 -17,7.58473 -17,16.9688 0,9.38402 7.61598,17 17,17 9.38402,0 17,-7.61598 17,-17 0,-9.38402 -7.61598,-16.9688 -17,-16.9688 z  m 0,6.75 c 4.44458,0 8.22139,2.84631 9.625,6.8125 h -19.25 c 1.40361,-3.96619 5.18041,-6.8125 9.625,-6.8125 z  m -9.625,13.6562 h 19.25 c -1.40361,3.96619 -5.18042,6.78125 -9.625,6.78125 -4.44459,0 -8.22139,-2.81506 -9.625,-6.78125 z " transform="translate(0,80)"/>
</g>
</svg>
