<svg xmlns:xlink="http://www.w3.org/1999/xlink" version="1.0" width="48" xmlns="http://www.w3.org/2000/svg" height="48">
<defs id="defs4">
<clipPath id="clipPath3108" clipPathUnits="userSpaceOnUse">
<path style="fill:url(#radialGradient3112);stroke:none;stroke-linejoin:round;stroke-linecap:round;stroke-width:16.495;stroke-dashoffset:4.15" id="path3110" d="m -166.2261,25.639 c -2.14474,0.051946 -4.18487,0.937493 -5.6875,2.46875 -16.9247,16.9247 -16.9247,44.6378 0,61.5625 16.9247,16.9247 44.6378,16.9247 61.5625,0 16.9247,-16.9247 16.9247,-44.6378 0,-61.5625 -3.22741,-3.21879 -8.43746,-3.19616 -11.6562,0.03125 -3.21878,3.22741 -3.22741,8.43746 0,11.6563 10.6139,10.6139 10.6139,27.6049 0,38.2188 -10.6139,10.6139 -27.6361,10.6139 -38.25,0 -10.6139,-10.6139 -10.6139,-27.6049 0,-38.2188 2.43341,-2.3685 3.16305,-5.99599 1.84375,-9.125 -1.31929,-3.12902 -4.41788,-5.12004 -7.8125,-5.03125 z  m 24.9688,.7188 c -4.12982,0.068921 -7.42678,3.46367 -7.375,7.59375 v 32 c -0.03825,2.70477 1.38252,5.2302 3.71875,6.59375 2.33623,1.36355 5.22627,1.36355 7.5625,0 2.33624,-1.36355 3.75701,-3.88898 3.71875,-6.59375 v -32 c 0.02542,-2.02712 -0.78231,-3.9757 -2.21875,-5.40625 -1.43644,-1.43055 -3.37925,-2.22124 -5.40625,-2.1875 z "/>
</clipPath>
<clipPath id="clipPath3069" clipPathUnits="userSpaceOnUse">
<path style="fill:url(#radialGradient3073);stroke:none;stroke-linejoin:round;stroke-linecap:round;stroke-width:16.495;stroke-dashoffset:4.15" id="path3071" d="m -261.4798,26.4438 c -4.12983,0.068921 -7.42679,3.46367 -7.375,7.59375 v 11.9062 l -8.4062,-8.4062 c -1.41542,-1.45135 -3.37899,-2.25416 -5.40625,-2.25 -2.02727,0.00417 -3.96556,0.79284 -5.375,2.25 -2.8715,2.96897 -2.80078,7.70996 0.15625,10.5938 l 8.4375,8.4375 h -11.9062 c -2.70477,-0.038251 -5.2302,1.38252 -6.59375,3.71875 -1.36355,2.33623 -1.36355,5.22627 0,7.5625 1.36355,2.33623 3.88898,3.757 6.59375,3.71875 h 11.9062 l -8.4062,8.4062 c -1.93961,1.88551 -2.71904,4.66511 -2.03125,7.28125 0.68779,2.61614 2.72761,4.65596 5.34375,5.34375 2.61614,0.687787 5.39573,-0.09164 7.28125,-2.03125 l 8.4062,-8.4062 v 11.875 c -0.03826,2.70477 1.38251,5.2302 3.71875,6.59375 2.33623,1.36355 5.22626,1.36355 7.5625,0 2.33623,-1.36355 3.757,-3.88898 3.71875,-6.59375 v -11.875 l 8.4062,8.4062 c 1.88551,1.93961 4.66511,2.71904 7.28125,2.03125 2.61613,-0.687785 4.65596,-2.72761 5.34375,-5.34375 0.68779,-2.61614 -0.09164,-5.42699 -2.03125,-7.3125 l -8.375,-8.375 h 11.875 c 2.02711,0.025414 3.97569,-0.78231 5.40625,-2.21875 1.43055,-1.43644 2.22124,-3.37926 2.1875,-5.40625 -0.06893,-4.12983 -3.46368,-7.42679 -7.59375,-7.375 h -11.9062 l 8.4375,-8.4375 c 1.45135,-1.41541 2.25416,-3.34773 2.25,-5.375 -0.00418,-2.02727 -0.82409,-3.96556 -2.28125,-5.375 -2.96897,-2.87149 -7.70997,-2.80078 -10.5938,0.15625 l -8.4062,8.4062 v -11.9062 c 0.02541,-2.02712 -0.78231,-3.9757 -2.21875,-5.40625 -1.43645,-1.43055 -3.37926,-2.22124 -5.40625,-2.1875 z "/>
</clipPath>
<clipPath id="clipPath3075" clipPathUnits="userSpaceOnUse">
<path style="fill:url(#radialGradient3079);stroke:none;stroke-linejoin:round;stroke-linecap:round;stroke-width:16.495;stroke-dashoffset:4.15" id="path3077" d="m -177.5928,26.4438 c -4.12983,0.068921 -7.42679,3.46367 -7.375,7.59375 v 11.9062 l -8.4062,-8.4062 c -1.41542,-1.45135 -3.37899,-2.25416 -5.40625,-2.25 -2.02727,0.00417 -3.96556,0.79284 -5.375,2.25 -2.8715,2.96897 -2.80078,7.70996 0.15625,10.5938 l 8.4375,8.4375 h -11.9062 c -2.70477,-0.038251 -5.2302,1.38252 -6.59375,3.71875 -1.36355,2.33623 -1.36355,5.22627 0,7.5625 1.36355,2.33623 3.88898,3.757 6.59375,3.71875 h 11.9062 l -8.4062,8.4062 c -1.93961,1.88551 -2.71904,4.66511 -2.03125,7.28125 0.68779,2.61614 2.72761,4.65596 5.34375,5.34375 2.61614,0.687787 5.39573,-0.09164 7.28125,-2.03125 l 8.4062,-8.4062 v 11.875 c -0.03826,2.70477 1.38251,5.2302 3.71875,6.59375 2.33623,1.36355 5.22626,1.36355 7.5625,0 2.33623,-1.36355 3.757,-3.88898 3.71875,-6.59375 v -11.875 l 8.4062,8.4062 c 1.88551,1.93961 4.66511,2.71904 7.28125,2.03125 2.61613,-0.687785 4.65596,-2.72761 5.34375,-5.34375 0.68779,-2.61614 -0.09164,-5.42699 -2.03125,-7.3125 l -8.375,-8.375 h 11.875 c 2.02711,0.025414 3.97569,-0.78231 5.40625,-2.21875 1.43055,-1.43644 2.22124,-3.37926 2.1875,-5.40625 -0.06893,-4.12983 -3.46368,-7.42679 -7.59375,-7.375 h -11.9062 l 8.4375,-8.4375 c 1.45135,-1.41541 2.25416,-3.34773 2.25,-5.375 -0.00418,-2.02727 -0.82409,-3.96556 -2.28125,-5.375 -2.96897,-2.87149 -7.70997,-2.80078 -10.5938,0.15625 l -8.4062,8.4062 v -11.9062 c 0.02541,-2.02712 -0.78231,-3.9757 -2.21875,-5.40625 -1.43645,-1.43055 -3.37926,-2.22124 -5.40625,-2.1875 z "/>
</clipPath>
<clipPath id="clipPath3114" clipPathUnits="userSpaceOnUse">
<path style="fill:url(#radialGradient3118);stroke:none;stroke-linejoin:round;stroke-linecap:round;stroke-width:16.495;stroke-dashoffset:4.15" id="path3116" d="m -69.0938,25.639 c -2.14475,0.051946 -4.18487,0.937493 -5.6875,2.46875 -16.9247,16.9247 -16.9247,44.6378 0,61.5625 16.9247,16.9247 44.6378,16.9247 61.5625,0 16.9247,-16.9247 16.9247,-44.6378 0,-61.5625 -3.22741,-3.21879 -8.43746,-3.19616 -11.6562,0.03125 -3.21879,3.22741 -3.22741,8.43746 0,11.6563 10.6139,10.6139 10.6139,27.6049 0,38.2188 -10.6139,10.6139 -27.6361,10.6139 -38.25,0 -10.6139,-10.6139 -10.6139,-27.6049 0,-38.2188 2.43341,-2.3685 3.16305,-5.99599 1.84375,-9.125 -1.3193,-3.12902 -4.41789,-5.12004 -7.8125,-5.03125 z  m 24.9688,.7188 c -4.12983,0.068921 -7.42679,3.46367 -7.375,7.59375 v 32 c -0.038252,2.70477 1.38252,5.2302 3.71875,6.59375 2.33623,1.36355 5.22627,1.36355 7.5625,0 2.33623,-1.36355 3.757,-3.88898 3.71875,-6.59375 v -32 c 0.025417,-2.02712 -0.78231,-3.9757 -2.21875,-5.40625 -1.43644,-1.43055 -3.37926,-2.22124 -5.40625,-2.1875 z "/>
</clipPath>
<linearGradient id="linearGradient2990">
<stop offset="0" style="stop-color:#ccc" id="stop2992"/>
<stop offset="1" style="stop-color:#f1f1f1" id="stop2994"/>
</linearGradient>
<radialGradient fx="66.881805" fy="105.27442" cx="64" cy="81.325775" gradientTransform="matrix(0.712348,-0.1260581,0.1345724,0.7604617,-197.66681,20.174132)" spreadMethod="reflect" r="43.474762" id="radialGradient3112" xlink:href="#linearGradient2990" gradientUnits="userSpaceOnUse"/>
<radialGradient fx="66.881805" fy="105.27442" cx="64" cy="81.325775" gradientTransform="matrix(0.712348,-0.1260581,0.1345724,0.7604617,-100.53448,20.174132)" spreadMethod="reflect" r="43.474762" id="radialGradient3118" xlink:href="#linearGradient2990" gradientUnits="userSpaceOnUse"/>
<radialGradient fx="66.881805" fy="105.27442" cx="64" cy="81.325775" gradientTransform="matrix(0.712348,-0.1260581,0.1345724,0.7604617,-317.89381,20.274132)" spreadMethod="reflect" r="43.474762" id="radialGradient3073" xlink:href="#linearGradient2990" gradientUnits="userSpaceOnUse"/>
<radialGradient fx="66.881805" fy="105.27442" cx="64" cy="81.325775" gradientTransform="matrix(0.712348,-0.1260581,0.1345724,0.7604617,-234.0068,20.274132)" spreadMethod="reflect" r="43.474762" id="radialGradient3079" xlink:href="#linearGradient2990" gradientUnits="userSpaceOnUse"/>
</defs>
<g style="stroke:none;fill-rule:evenodd" id="layer1" transform="translate(0,-80)">
<path style="fill:#3e659e" id="path3080" d="m 7,82.5038 c -2.5274,0.255139 -4.5,2.40313 -4.5,5 v 33 c 0,2.77 2.23,5 5,5 h 33 c 2.77,0 5,-2.23 5,-5 v -33 c 0,-2.77 -2.23,-5 -5,-5 h -33 c -0.173125,0 -0.331506,-0.01701 -0.5,0 z "/>
<path style="fill:#fff" id="path3049" d="m 23.9375,87.035 c 0.916054,-0.01525 1.81958,0.353492 2.46875,1 0.649166,0.646507 1.01149,1.5214 1,2.4375 v 5.375 l 3.7812,-3.7812 c 1.30326,-1.33638 3.43949,-1.39146 4.78125,-0.09375 0.65853,0.636963 1.02935,1.52132 1.03125,2.4375 0.0019,0.91618 -0.344095,1.79784 -1,2.4375 l -3.8125,3.8125 h 5.375 c 1.8665,-0.0234 3.40636,1.47736 3.4375,3.34375 0.01525,0.91605 -0.353494,1.78833 -1,2.4375 -0.646506,0.64916 -1.52139,1.0115 -2.4375,1 h -5.375 l 3.7812,3.7812 c 0.876567,0.85212 1.24833,2.1302 0.9375,3.3125 -0.310831,1.18231 -1.2552,2.09542 -2.4375,2.40625 -1.1823,0.31083 -2.42914,-0.0297 -3.28125,-0.90625 l -3.7812,-3.8125 v 5.375 c 0.01729,1.22235 -0.631692,2.35252 -1.6875,2.96875 -1.05581,0.61622 -2.38169,0.61622 -3.4375,0 -1.05581,-0.61623 -1.67353,-1.7464 -1.65625,-2.96875 v -5.375 l -3.8125,3.8125 c -0.852115,0.87658 -2.09895,1.21708 -3.28125,0.90625 -1.1823,-0.31083 -2.09542,-1.22394 -2.40625,-2.40625 -0.310831,-1.18231 0.02969,-2.46038 0.90625,-3.3125 l 3.7812,-3.7812 h -5.375 c -1.22236,0.0173 -2.35252,-0.63168 -2.96875,-1.6875 -0.616226,-1.0558 -0.616226,-2.35043 0,-3.40625 0.616226,-1.0558 1.74639,-1.7048 2.96875,-1.6875 h 5.375 l -3.8125,-3.8125 c -1.33637,-1.30326 -1.36021,-3.43949 -0.0625,-4.78125 0.636965,-0.658522 1.52132,-1.02925 2.4375,-1.03125 0.916178,-0.0019 1.79784,0.375346 2.4375,1.03125 l 3.8125,3.7812 v -5.375 c -0.0234,-1.86649 1.44612,-3.40634 3.3125,-3.4375 z "/>
</g>
</svg>
